# xmcd
#
# Track frame offsets: 
#        150
#        14715
#        38475
#
# Disc length: 762 seconds
#
# Revision: 0
# Processed by: cddbd v1.5.1PL2 Copyright (c) Steve Scherf et al.
# Submitted via: ExactAudioCopy v0.95b4
#
DISCID=1b02f803
DTITLE=Sikaduo - Huraa, Huraa
DYEAR=1995
DGENRE=Country
TTITLE0=Huraa, Huraa (Radio Edit)
TTITLE1=Huraa, Huraa (TexMix)
TTITLE2=Huraa, Huraa (Kuohittu TexMix)
EXTD=
EXTT0=
EXTT1=
EXTT2=
PLAYORDER=
